<svg width="46" height="46" viewBox="0 0 46 46" fill="none" xmlns="http://www.w3.org/2000/svg">
<mask id="mask0_1_1022" style="mask-type:luminance" maskUnits="userSpaceOnUse" x="4" y="4" width="38" height="38">
<path d="M4.6001 41.4004H41.4001V4.60039H4.6001V41.4004Z" fill="white"/>
</mask>
<g mask="url(#mask0_1_1022)">
<path d="M37.9688 15.5714C37.8873 13.7774 37.5869 12.8028 37.3382 12.1554C37.0033 11.2972 36.6041 10.6834 35.9568 10.0399C35.3171 9.39637 34.7033 8.99818 33.8451 8.66708C33.1977 8.41455 32.2193 8.11316 30.4257 8.02787C28.4866 7.94258 27.9116 7.92437 22.9943 7.92437C18.081 7.92437 17.5021 7.94258 15.5625 8.02787C13.769 8.11316 12.7953 8.41455 12.1479 8.66708C11.285 8.99818 10.6759 9.39637 10.0324 10.0399C9.3841 10.6834 8.98495 11.2972 8.65481 12.1554C8.40564 12.8028 8.10137 13.7774 8.02374 15.5714C7.92935 17.5106 7.9121 18.0942 7.9121 23.0018C7.9121 27.9195 7.92935 28.4983 8.02374 30.438C8.10137 32.2315 8.40564 33.2052 8.65481 33.8578C8.98495 34.7155 9.3841 35.3255 10.0324 35.969C10.6759 36.6121 11.285 37.0112 12.1479 37.3457C12.7953 37.5992 13.769 37.8958 15.5625 37.9811C17.5021 38.0663 18.081 38.0884 22.9943 38.0884C27.9116 38.0884 28.4866 38.0663 30.4257 37.9811C32.2193 37.8958 33.1977 37.5992 33.8451 37.3457C34.7033 37.0112 35.3171 36.6121 35.9568 35.969C36.6041 35.3255 37.0033 34.7155 37.3382 33.8578C37.5869 33.2052 37.8873 32.2315 37.9688 30.438C38.0589 28.4983 38.0804 27.9195 38.0804 23.0018C38.0804 18.0942 38.0589 17.5106 37.9688 15.5714ZM41.2808 30.5885C41.1907 32.5487 40.8816 33.888 40.4226 35.0543C39.9554 36.2647 39.3291 37.2901 38.3032 38.3155C37.2826 39.3366 36.2567 39.9629 35.0468 40.4358C33.8757 40.8906 32.5413 41.203 30.58 41.2887C28.6193 41.3831 27.9925 41.4004 22.9943 41.4004C18 41.4004 17.3694 41.3831 15.4082 41.2887C13.4517 41.203 12.1177 40.8906 10.9414 40.4358C9.73581 39.9629 8.71039 39.3366 7.68929 38.3155C6.66387 37.2901 6.0376 36.2647 5.56562 35.0543C5.11089 33.888 4.80183 32.5487 4.70743 30.5885C4.62214 28.6277 4.6001 28.0005 4.6001 23.0018C4.6001 18.008 4.62214 17.3812 4.70743 15.4205C4.80183 13.464 5.11089 12.1252 5.56562 10.9537C6.0376 9.74808 6.66387 8.71787 7.68929 7.69724C8.71039 6.67614 9.73581 6.04508 10.9414 5.57358C12.1177 5.11885 13.4517 4.80978 15.4082 4.7197C17.3694 4.62962 18 4.60806 22.9943 4.60806C27.9925 4.60806 28.6193 4.62962 30.58 4.7197C32.5413 4.80978 33.8757 5.11885 35.0468 5.57358C36.2567 6.04508 37.2826 6.67614 38.3032 7.69724C39.3291 8.71787 39.9554 9.74808 40.4226 10.9537C40.8816 12.1252 41.1907 13.464 41.2808 15.4205C41.3709 17.3812 41.3924 18.008 41.3924 23.0018C41.3924 28.0005 41.3709 28.6277 41.2808 30.5885Z" fill="#FFF7ED"/>
</g>
<path d="M22.9942 16.875C19.6094 16.875 16.8628 19.6167 16.8628 23.0016C16.8628 26.3917 19.6094 29.1373 22.9942 29.1373C26.3795 29.1373 29.1299 26.3917 29.1299 23.0016C29.1299 19.6167 26.3795 16.875 22.9942 16.875ZM22.9942 32.4541C17.7766 32.4541 13.5508 28.2192 13.5508 23.0016C13.5508 17.7882 17.7766 13.5582 22.9942 13.5582C28.2118 13.5582 32.4419 17.7882 32.4419 23.0016C32.4419 28.2192 28.2118 32.4541 22.9942 32.4541Z" fill="#FFF7ED"/>
</svg>
