<svg width="633" height="633" viewBox="0 0 633 633" fill="none" xmlns="http://www.w3.org/2000/svg">
<g opacity="0.08" clip-path="url(#clip0_1_917)">
<path d="M321.893 321.349C315.74 312.93 312.55 303.739 310.474 294.13C305.802 272.519 308.347 251.149 313.132 229.944C315.386 219.929 318.158 210.017 320.779 199.711C343.124 224.057 343.846 300.688 321.893 321.361V321.349Z" fill="#B4533A"/>
<path d="M559.307 355.094C558.573 342.421 558.003 329.736 557.092 317.076C551.99 246.395 527.328 183.804 475.511 134.645C431.251 92.6521 380.497 62.1288 316.311 63.5721C272.077 64.5722 232.654 80.068 196.775 105.122C59.4904 200.996 30.4737 414.178 136.957 543.728C203.549 624.739 302.879 652.971 392.765 619.941C484.271 586.316 568.372 468.464 559.307 355.094ZM472.776 544.146C443.164 580.936 405.298 603.521 364.242 611.775C314.273 597.9 316.045 560.11 316.02 543.652C315.298 512.091 328.123 485.986 351.633 465.983C371.18 449.348 392.765 435.13 413.11 419.394C420.389 413.76 427.732 407.57 433.049 400.189C437.303 394.289 440.075 386.351 440.746 379.059C441.848 367.07 432.809 361.588 421.858 366.69C417.351 368.792 413.198 371.805 409.185 374.818C397.297 383.731 385.599 392.884 373.75 401.847C371.319 403.683 368.572 405.126 365.976 406.747C361.52 409.924 354.468 413.254 354.468 413.254C353.468 413.887 352.392 414.482 351.19 415.014C331.579 423.648 311.424 423.724 291.017 419.635C262.557 413.925 239.022 401.683 229.856 369.564C228.008 373.451 226.489 375.882 225.64 378.528C220.361 395.011 225.716 410.241 241.187 421.711C260.101 435.763 281.813 439.46 304.677 437.257C337.264 434.118 363.748 417.849 388.131 397.34C398.69 388.453 408.932 379.135 420.073 371.058C423.364 368.678 431.251 367.83 433.467 369.969C436.391 372.805 437.759 379.983 436.277 383.997C434.1 389.896 429.669 395.758 424.668 399.657C411.932 409.608 398.589 418.812 385.055 427.674C358.596 444.993 331.604 461.564 310.424 485.618C293.105 505.279 283.117 517.471 284.421 544.323H284.446C284.94 563.427 297.157 585.151 261.772 603.8C244.58 597.837 227.539 589.557 210.955 578.935C60.8704 482.821 61.4021 279.4 146.363 176.816C211.689 97.9313 334.137 51.9375 437.797 128.758C487.74 165.764 513.25 217.556 525.087 276.779C531.278 307.72 534.62 339.244 539.241 370.501C539.342 437.561 513.124 493.999 472.776 544.146Z" fill="#B4533A"/>
</g>
<defs>
<clipPath id="clip0_1_917">
<rect width="633" height="633" fill="white"/>
</clipPath>
</defs>
</svg>
