<svg width="1167" height="1167" viewBox="0 0 1167 1167" fill="none" xmlns="http://www.w3.org/2000/svg">
<g opacity="0.1">
<path d="M593.443 592.439C582.1 576.918 576.218 559.973 572.39 542.258C563.778 502.417 568.469 463.019 577.292 423.924C581.446 405.462 586.558 387.187 591.389 368.188C632.584 413.071 633.914 554.348 593.443 592.463V592.439Z" fill="#FFF7ED"/>
<path d="M1031.67 595.66C1030.32 572.297 1029.27 548.91 1027.59 525.57C1018.18 395.263 972.718 279.87 877.187 189.241C795.591 111.822 702.021 55.5492 583.687 58.2099C502.137 60.0538 429.456 88.6219 363.31 134.812C110.211 311.566 56.7162 704.588 253.029 943.426C375.797 1092.78 558.923 1144.83 724.637 1083.93C893.339 1021.94 1048.39 804.67 1031.67 595.66ZM872.146 944.196C817.554 1012.02 747.744 1053.66 672.052 1068.88C579.929 1043.3 583.197 973.628 583.15 943.286C581.82 885.099 605.463 836.972 648.805 800.095C684.842 769.426 724.637 743.216 762.144 714.204C775.565 703.818 789.102 692.404 798.905 678.797C806.747 667.921 811.859 653.287 813.096 639.843C815.126 617.74 798.462 607.634 778.272 617.04C769.963 620.914 762.308 626.469 754.909 632.024C732.993 648.455 711.427 665.33 689.58 681.855C685.099 685.239 680.034 687.9 675.25 690.887C667.034 696.746 654.033 702.884 654.033 702.884C652.19 704.051 650.206 705.148 647.988 706.128C611.835 722.046 574.678 722.186 537.053 714.647C484.585 704.121 441.196 681.551 424.298 622.338C420.89 629.503 418.089 633.984 416.526 638.862C406.793 669.251 416.666 697.329 445.187 718.475C480.057 744.383 520.085 751.198 562.237 747.137C622.314 741.348 671.142 711.356 716.095 673.546C735.56 657.161 754.442 639.983 774.981 625.092C781.05 620.704 795.591 619.14 799.675 623.085C805.067 628.313 807.587 641.547 804.857 648.945C800.842 659.822 792.673 670.628 783.454 677.817C759.974 696.162 735.373 713.13 710.423 729.468C661.642 761.397 611.881 791.95 572.834 836.296C540.904 872.543 522.489 895.019 524.893 944.523H524.94C525.85 979.743 548.373 1019.79 483.138 1054.17C451.442 1043.18 420.027 1027.92 389.451 1008.33C112.756 831.137 113.736 456.11 270.371 266.986C390.805 121.555 616.55 36.7605 807.657 178.388C899.734 246.61 946.764 342.094 968.587 451.279C980 508.322 986.162 566.438 994.681 624.065C994.868 747.697 946.53 851.747 872.146 944.196Z" fill="#FFF7ED"/>
</g>
</svg>
