<svg width="119" height="15" viewBox="0 0 119 15" fill="none" xmlns="http://www.w3.org/2000/svg">
<path d="M14.1182 0.118462L7.80435 14.1553H6.31384L0 0.118462H1.62937L7.09149 12.3141L12.5906 0.118462H14.1182Z" fill="#FFF7ED"/>
<path d="M25.9311 0.118462H27.4401V14.1553H25.9311V0.118462Z" fill="#FFF7ED"/>
<path d="M41.8361 0.118462H43.3452V12.8701H51.3254V14.1553H41.8361V0.118462Z" fill="#FFF7ED"/>
<path d="M63.5919 0.118462H65.1009V12.8701H73.0812V14.1553H63.5919V0.118462Z" fill="#FFF7ED"/>
<path d="M94.3279 10.4091H86.3847L84.672 14.1553H83.1074L89.6249 0.118462H91.1154L97.6329 14.1553H96.0406L94.3279 10.4091ZM93.7816 9.20593L90.3562 1.66798L86.9309 9.20593H93.7724H93.7816Z" fill="#FFF7ED"/>
<path d="M108.381 12.4508L108.974 11.3115C109.992 12.2959 111.807 13.016 113.677 13.016C116.343 13.016 117.509 11.9131 117.509 10.5276C117.509 6.68116 108.733 9.0419 108.733 3.84645C108.733 1.77739 110.362 0 113.991 0C115.602 0 117.269 0.464856 118.407 1.23962L117.898 2.42454C116.676 1.64067 115.251 1.25785 113.991 1.25785C111.381 1.25785 110.224 2.39721 110.224 3.80089C110.224 7.64734 119 5.32306 119 10.4365C119 12.5055 117.334 14.2647 113.686 14.2647C111.547 14.2647 109.446 13.5264 108.391 12.4417L108.381 12.4508Z" fill="#FFF7ED"/>
</svg>
