<svg width="471" height="186" viewBox="0 0 471 186" fill="none" xmlns="http://www.w3.org/2000/svg">
<path d="M189.864 153.113L183.599 167.042H182.12L175.854 153.113H177.471L182.892 165.215L188.349 153.113H189.864Z" fill="#FFF7ED"/>
<path d="M201.587 153.113H203.084V167.042H201.587V153.113Z" fill="#FFF7ED"/>
<path d="M217.37 153.113H218.867V165.766H226.786V167.042H217.37V153.113Z" fill="#FFF7ED"/>
<path d="M238.959 153.113H240.456V165.766H248.375V167.042H238.959V153.113Z" fill="#FFF7ED"/>
<path d="M269.459 163.324H261.577L259.877 167.042H258.325L264.792 153.113H266.271L272.739 167.042H271.159L269.459 163.324ZM268.917 162.13L265.518 154.65L262.119 162.13H268.908H268.917Z" fill="#FFF7ED"/>
<path d="M283.405 165.35L283.993 164.22C285.003 165.197 286.804 165.911 288.66 165.911C291.305 165.911 292.463 164.817 292.463 163.442C292.463 159.625 283.754 161.968 283.754 156.812C283.754 154.759 285.371 152.995 288.972 152.995C290.571 152.995 292.224 153.456 293.354 154.225L292.849 155.401C291.636 154.623 290.221 154.243 288.972 154.243C286.381 154.243 285.233 155.374 285.233 156.767C285.233 160.584 293.942 158.277 293.942 163.351C293.942 165.405 292.288 167.15 288.669 167.15C286.547 167.15 284.461 166.418 283.414 165.341L283.405 165.35Z" fill="#FFF7ED"/>
<path d="M290.91 131.513C291.388 131.586 291.636 131.658 291.884 131.658C308.393 131.54 288.035 133.006 304.498 131.197C312.601 130.301 320.639 128.926 328.319 126.059C328.613 125.951 328.935 125.896 329.422 125.761V133.901C301.08 133.901 309.578 133.196 280.97 133.196C284.893 127.407 283.717 120.885 283.736 114.581C283.818 86.5238 283.772 58.4664 283.763 30.409C283.763 26.384 283.543 22.3861 280.851 18.7863H293.795C290.543 23.3359 290.91 28.4915 290.91 33.5747C290.91 65.3948 290.91 97.2058 290.91 129.026C290.91 129.804 290.91 130.573 290.91 131.522V131.513Z" fill="#FFF7ED"/>
<path d="M131.05 18.9942C126.962 18.9399 122.874 18.958 118.786 18.9942C118.501 18.9942 118.069 19.2475 117.987 19.4736C117.895 19.7359 118.014 20.2605 118.225 20.4143C120.706 22.2233 121.312 25 122.038 27.6593C123.682 33.656 124.197 39.8066 124.215 46.0024L125.703 48.1732C125.703 46.5541 125.722 44.926 125.731 43.307C125.777 38.0338 126.907 32.7516 127.853 27.5236C128.331 24.9006 129.13 22.2323 131.555 20.4324C132.171 19.9801 132.226 19.0033 131.05 18.9942Z" fill="#FFF7ED"/>
<path d="M125.465 61.4602C125.051 60.8994 124.638 60.3477 124.224 59.7869L125.465 61.4602Z" fill="#FFF7ED"/>
<path d="M137.343 132.382C133.742 127.868 130.113 123.382 126.558 118.823C126.053 118.181 125.667 117.258 125.667 116.462C125.639 98.9515 125.575 81.4495 125.621 63.9385L124.224 62.0572C124.224 79.2335 124.224 96.4099 124.224 113.586V115.35L123.848 115.54C123.407 115.006 122.966 114.482 122.534 113.948C98.9055 84.371 75.277 54.7851 51.6392 25.2081C50.004 23.164 48.7178 20.3691 46.5681 19.347C44.3541 18.2978 41.2857 18.9943 38.5939 18.9581C36.4074 18.9309 21.5248 20.1611 18.9341 20.1611C22.3975 24.5117 38.3183 27.2704 41.4051 31.3316C42.0665 32.1999 42.5167 33.4481 42.5259 34.5154C42.5902 58.4302 42.6729 82.345 42.4983 106.26C42.4616 111.786 41.7083 117.34 40.8355 122.821C40.2751 126.367 39.678 130.129 36.4074 132.617C36.187 132.789 36.2972 133.376 36.2513 133.802H50.3898C50.2061 133.241 50.1969 132.635 49.9121 132.445C47.8726 131.115 47.2755 128.963 46.6416 126.891C44.8777 121.139 44.0417 115.232 44.0325 109.217C44.005 84.8866 43.9958 60.5648 43.9958 36.2339C43.9958 35.8631 44.0876 35.4832 44.1703 34.8319C44.7491 35.4922 45.1441 35.9083 45.5024 36.3605C59.0806 53.3288 72.6495 70.2881 86.2277 87.2564C98.3543 102.416 110.472 117.566 122.608 132.716C122.984 133.196 123.572 133.829 124.077 133.838C128.79 133.919 133.503 133.892 138.501 133.892C137.986 133.214 137.674 132.789 137.352 132.382H137.343Z" fill="#FFF7ED"/>
<path d="M150.104 88.0977C147.596 84.8505 145.079 81.6305 142.607 78.3744C140.586 75.7242 138.74 72.9384 136.59 70.3967C133.751 67.0411 133.237 63.197 133.577 59.0906C134.155 52.1531 136.967 46.0387 141.119 40.5394C148.22 31.1417 157.334 24.7108 169.323 22.8385C175.046 21.943 180.558 22.748 185.62 25.6786C195.193 31.2231 197.719 41.5434 191.885 51.2576C188.569 56.7751 183.838 61.0714 178.895 65.0873C176.396 67.1225 173.879 69.1304 171.353 71.1384L173.888 72.26C175.818 70.7585 177.747 69.2571 179.667 67.7375C184.867 63.6402 190.443 59.8594 194.991 55.1289C206.493 43.1805 200.916 24.6927 184.812 20.2245C174.458 17.3572 164.665 18.7049 155.506 24.1771C143.361 31.4312 135.239 41.6338 132.41 55.5359C131.905 58.0323 131.877 60.6282 131.611 63.3417C131.307 62.9708 131.096 62.7447 130.912 62.4915C124.371 53.3108 117.775 44.1664 111.326 34.9135C108.487 30.8432 106.273 26.4655 107.468 21.2013H89.3879C94.946 24.9098 98.6023 29.6312 102.167 34.4069C115.837 52.7591 129.479 71.1203 143.085 89.5177C143.563 90.1689 143.765 91.1548 143.774 91.987C143.82 100.788 143.838 109.588 143.792 118.389C143.765 123.689 144.353 129.107 141.009 133.865H153.687C151.399 130.88 150.866 127.642 150.857 124.286C150.83 113.442 150.811 102.597 150.875 91.7609C150.875 90.9468 151.362 89.8795 151.996 89.382C156.764 85.6193 159.208 84.1812 163.994 80.4456L161.845 79.107" fill="#FFF7ED"/>
<path d="M217.792 60.6915C216.442 61.3156 215.193 62.202 213.998 63.0884C210.434 65.7205 206.924 68.4249 203.369 71.066C202.643 71.6087 201.817 72.0338 201.036 72.5132C199.704 73.4539 197.591 74.4307 197.591 74.4307C197.287 74.6207 196.966 74.7925 196.608 74.9463C190.728 77.497 184.683 77.5151 178.565 76.3121C170.03 74.6297 162.975 71.0117 160.228 61.5327C159.677 62.6814 159.217 63.3959 158.969 64.1738C157.389 69.0399 158.997 73.5353 163.627 76.9181C169.295 81.0607 175.809 82.1551 182.662 81.5039C192.437 80.5722 200.374 75.7694 207.687 69.7183C210.856 67.0953 213.925 64.3456 217.26 61.9578C218.243 61.2523 220.613 61.008 221.274 61.6412C222.156 62.4824 222.56 64.5989 222.119 65.7838C221.467 67.5204 220.144 69.257 218.638 70.4057C214.816 73.3453 210.82 76.0588 206.759 78.6728C198.831 83.7832 190.737 88.6765 184.38 95.7768C179.189 101.584 176.194 105.184 176.58 113.107H176.589C176.764 119.891 182.028 127.787 161.44 133.883H204.527C185.436 130.808 186.061 118.172 186.052 112.917C185.831 103.601 189.681 95.8944 196.727 89.988C202.588 85.0766 209.065 80.8798 215.156 76.2397C217.342 74.5754 219.538 72.7484 221.127 70.5685C222.404 68.8229 223.231 66.4802 223.433 64.3366C223.764 60.8 221.054 59.181 217.774 60.6824L217.792 60.6915Z" fill="#FFF7ED"/>
<path d="M270.121 129.677C263.855 125.869 259.997 120.053 257.434 113.36C246.033 83.6837 234.632 53.9982 223.231 24.3218C222.514 22.4585 221.734 20.6224 220.98 18.7682C220.769 18.7682 220.558 18.7682 220.346 18.7682C219.997 19.5008 219.602 20.2154 219.317 20.9661C218.086 24.159 216.855 27.3518 215.634 30.5356L216.157 31.7024C216.157 31.7024 216.157 31.6934 216.157 31.6844C216.653 32.815 217.021 33.5838 217.315 34.2803C217.407 34.4973 217.489 34.7054 217.572 34.9134C221.265 44.501 224.793 54.161 228.688 63.6763C229.561 65.8109 230.259 67.9636 230.829 70.1253L236.708 84.5158L236.671 84.5339C239.345 91.4804 242.073 98.4088 244.618 105.401C246.52 110.619 248.578 115.847 249.763 121.247C251.168 127.651 248.192 131.423 241.66 132.734C239.942 133.078 238.178 133.214 236.442 133.44C236.46 133.585 236.478 133.738 236.488 133.883H279.62C276.506 132.526 273.079 131.468 270.111 129.659L270.121 129.677Z" fill="#FFF7ED"/>
<path d="M389.908 60.592C388.557 61.2161 387.308 62.1025 386.114 62.9889C382.549 65.621 379.04 68.3254 375.484 70.9665C374.759 71.5092 373.932 71.9343 373.151 72.4137C371.819 73.3544 369.706 74.3312 369.706 74.3312C369.403 74.5212 369.081 74.693 368.723 74.8468C362.843 77.3975 356.798 77.4156 350.68 76.2126C342.145 74.5302 335.09 70.9122 332.343 61.4332C331.792 62.5819 331.333 63.2964 331.084 64.0743C329.504 68.9405 331.112 73.4358 335.742 76.8186C341.41 80.9612 347.924 82.0556 354.777 81.4044C364.552 80.4727 372.49 75.6699 379.802 69.6188C382.972 66.9958 386.04 64.2461 389.375 61.8583C390.358 61.1528 392.728 60.9086 393.39 61.5417C394.272 62.3829 394.676 64.4994 394.235 65.6843C393.583 67.4209 392.26 69.1575 390.753 70.3062C386.931 73.2458 382.935 75.9593 378.874 78.5733C370.946 83.6837 362.853 88.577 356.495 95.6773C351.305 101.484 348.31 105.084 348.696 113.007H348.705C348.879 119.791 354.143 127.687 333.556 133.784H376.642C357.552 130.708 358.176 118.073 358.167 112.817C357.947 103.501 361.796 95.7949 368.842 89.8885C374.704 84.9771 381.18 80.7803 387.271 76.1402C389.458 74.476 391.653 72.6489 393.243 70.4691C394.52 68.7234 395.346 66.3807 395.549 64.2371C395.879 60.7005 393.169 59.0815 389.889 60.5829L389.908 60.592Z" fill="#FFF7ED"/>
<path d="M442.236 129.578C435.971 125.77 432.112 119.954 429.549 113.261C418.148 83.5842 406.747 53.8987 395.346 24.2223C394.63 22.359 393.849 20.5229 393.096 18.6687C392.884 18.6687 392.673 18.6687 392.462 18.6687C392.113 19.4013 391.718 20.1159 391.433 20.8666C390.202 24.0595 388.971 27.2523 387.749 30.4362L388.273 31.603C388.273 31.603 388.273 31.5939 388.273 31.5849C388.769 32.7155 389.136 33.4843 389.43 34.1808C389.522 34.3978 389.605 34.6059 389.687 34.8139C393.38 44.4015 396.908 54.0615 400.803 63.5768C401.676 65.7114 402.374 67.8641 402.944 70.0258L408.824 84.4163L408.787 84.4344C411.46 91.3809 414.189 98.3093 416.733 105.301C418.635 110.52 420.693 115.748 421.878 121.148C423.284 127.552 420.307 131.323 413.775 132.635C412.057 132.979 410.293 133.114 408.557 133.34C408.575 133.485 408.594 133.639 408.603 133.784H451.735C448.621 132.427 445.194 131.369 442.227 129.56L442.236 129.578Z" fill="#FFF7ED"/>
<path d="M360.014 61.6502C357.901 58.8011 356.808 55.6987 356.091 52.4516C354.493 45.1523 355.365 37.9254 357.001 30.7528C357.772 27.37 358.728 24.0143 359.628 20.532C367.299 28.7629 367.547 54.6585 360.014 61.6502Z" fill="#FFF7ED"/>
</svg>
