<svg width="343" height="343" viewBox="0 0 343 343" fill="none" xmlns="http://www.w3.org/2000/svg">
<g style="mix-blend-mode:overlay">
<path d="M174.422 174.128C171.088 169.566 169.36 164.585 168.235 159.379C165.703 147.669 167.082 136.089 169.675 124.598C170.896 119.172 172.399 113.801 173.819 108.217C185.927 121.409 186.318 162.932 174.422 174.135V174.128Z" fill="#FFF7ED"/>
<path d="M303.226 175.074C302.828 168.207 302.519 161.333 302.025 154.473C299.261 116.174 285.897 82.2581 257.819 55.6207C233.837 32.8661 206.335 16.3266 171.555 17.1086C147.586 17.6506 126.224 26.0472 106.783 39.6232C32.3929 91.5739 16.6698 207.089 74.3693 277.288C110.453 321.185 164.276 336.483 212.982 318.585C262.566 300.365 308.137 236.505 303.226 175.074ZM256.338 277.514C240.292 297.449 219.774 309.688 197.527 314.16C170.45 306.642 171.411 286.165 171.397 277.247C171.006 260.145 177.955 245.999 190.694 235.161C201.286 226.147 212.982 218.443 224.006 209.916C227.951 206.863 231.93 203.509 234.811 199.509C237.116 196.312 238.618 192.011 238.982 188.06C239.579 181.563 234.681 178.593 228.747 181.358C226.305 182.496 224.054 184.129 221.88 185.762C215.438 190.591 209.1 195.551 202.679 200.408C201.362 201.403 199.873 202.185 198.467 203.063C196.052 204.785 192.231 206.589 192.231 206.589C191.689 206.932 191.106 207.254 190.454 207.542C179.828 212.221 168.907 212.262 157.849 210.046C142.427 206.952 129.675 200.319 124.708 182.915C123.706 185.021 122.883 186.338 122.424 187.772C119.563 196.703 122.465 204.956 130.848 211.171C141.096 218.786 152.861 220.789 165.251 219.595C182.908 217.894 197.259 209.079 210.472 197.966C216.193 193.15 221.743 188.101 227.779 183.724C229.563 182.435 233.837 181.975 235.037 183.134C236.622 184.671 237.363 188.561 236.56 190.735C235.38 193.932 232.979 197.108 230.27 199.221C223.368 204.613 216.138 209.6 208.805 214.402C194.467 223.787 179.842 232.766 168.365 245.8C158.98 256.454 153.568 263.06 154.275 277.61H154.288C154.556 287.962 161.176 299.734 142.002 309.839C132.686 306.607 123.453 302.121 114.466 296.366C33.1407 244.284 33.4288 134.058 79.4662 78.4713C114.864 35.7267 181.214 10.8043 237.383 52.4308C264.446 72.4826 278.269 100.547 284.683 132.638C288.038 149.404 289.849 166.485 292.353 183.422C292.408 219.76 278.2 250.342 256.338 277.514Z" fill="#FFF7ED"/>
</g>
</svg>
